# xmcd
#
# Track frame offsets:
#	150
#	16846
#	32452
#	45530
#	58933
#	72031
#	86482
#	100761
#	113748
#	125971
#	139606
#	154243
#	168825
#	182470
#	195732
#	208923
#	237770
#	253295
#	266254
#	279724
#	293599
#	306824
#	320225
#	335492
#
# Disc length: 4629 seconds
#
# Revision: 0
# Processed by: cddbd v1.5.2PL0 Copyright (c) Steve Scherf et al.
# Submitted via: dBpowerAMP V4.0
#
DISCID=5c121318
DTITLE=Bessie Smith - Squeeze Me CD2
DYEAR=1900
DGENRE=Blues
TTITLE0=Nashville Women's Blues
TTITLE1=Careless Love Blues
TTITLE2=Nobody's Blues But Mine
TTITLE3=I've Been Mistreated And I Don't Like It
TTITLE4=Squeeze Me
TTITLE5=Money Blues
TTITLE6=Young Woman's Blues
TTITLE7=Preachin' The Blues
TTITLE8=Back Water Blues
TTITLE9=Alexander's Ragtime Band
TTITLE10=Muddy Water
TTITLE11=Trombone Cholly
TTITLE12=A Good Man Is Hard To Find
TTITLE13=Foolish Man Blues
TTITLE14=Standin' In The Rain Blues
TTITLE15=Empty Bed Blues
TTITLE16=Poor Man's Blues
TTITLE17=Me And My Gin
TTITLE18=Nobody Knows You When...
TTITLE19=Wasted Life Blues
TTITLE20=Blue Spirit Blues
TTITLE21=On Revival Day
TTITLE22=Shipwreck Blues
TTITLE23=Take Me For A Buggy Ride
EXTD=
EXTT0=
EXTT1=
EXTT2=
EXTT3=
EXTT4=
EXTT5=
EXTT6=
EXTT7=
EXTT8=
EXTT9=
EXTT10=
EXTT11=
EXTT12=
EXTT13=
EXTT14=
EXTT15=
EXTT16=
EXTT17=
EXTT18=
EXTT19=
EXTT20=
EXTT21=
EXTT22=
EXTT23=
PLAYORDER=
